<?xml version="1.0" encoding="utf-8"?>
<!-- Generator: Adobe Illustrator 22.1.0, SVG Export Plug-In . SVG Version: 6.00 Build 0)  -->
<svg version="1.1" xmlns="http://www.w3.org/2000/svg" xmlns:xlink="http://www.w3.org/1999/xlink" x="0px" y="0px"
	 viewBox="0 0 256 256" style="enable-background:new 0 0 256 256;" xml:space="preserve">
<style type="text/css">
	.st0{display:none;}
	.st1{display:inline;fill:url(#SVGID_1_);}
	.st2{display:inline;}
	.st3{fill:#DB1F28;}
	.st4{fill:#EB7077;}
	.st5{fill:#AD161B;}
	.st6{fill:#FFFFFF;}
	.st7{fill:#FFFFFF;stroke:#F7931A;stroke-miterlimit:10;}
	.st8{fill:#F7931A;}
	.st9{font-family:'Arial-BoldMT';}
	.st10{font-size:40.421px;}
	.st11{font-size:19.8218px;}
	.st12{fill:#6A8FC2;}
</style>
<g id="Слой_1" class="st0">
	
		<linearGradient id="SVGID_1_" gradientUnits="userSpaceOnUse" x1="6.35" y1="251.65" x2="249.65" y2="8.35" gradientTransform="matrix(1 0 0 -1 0 258)">
		<stop  offset="0" style="stop-color:#00023A"/>
		<stop  offset="0" style="stop-color:#0C5389"/>
		<stop  offset="0.2872" style="stop-color:#0A4E83"/>
		<stop  offset="0.6653" style="stop-color:#064073"/>
		<stop  offset="1" style="stop-color:#002F5E"/>
		<stop  offset="1" style="stop-color:#00002F"/>
	</linearGradient>
	<path class="st1" d="M234.3,256H21.7C9.7,256,0,246.3,0,234.3V21.7C0,9.7,9.7,0,21.7,0h212.6c12,0,21.7,9.7,21.7,21.7v212.6
		C256,246.3,246.3,256,234.3,256z"/>
	<g>
		<g class="st2">
			<polygon class="st3" points="144.7,98.3 157.9,81.7 131.4,81.7 127.8,77.2 131.2,72.9 158.8,72.9 144.7,56.6 149.5,50.4 
				171.2,77.2 149.5,104.5 			"/>
			<polygon class="st4" points="82.1,73.2 121,73.2 144.4,43.6 105.5,43.6 			"/>
			<polygon class="st5" points="82.1,81.4 121,81.4 144.4,111 105.5,111 			"/>
		</g>
		<g class="st2">
			<path class="st6" d="M60,155.6c0,0.2,0,0.5,0,0.7s0,0.5,0,0.7l-1.9,22.5h-6.4l-0.7-2.6c-0.9,0.7-2.4,1.4-3.8,2.1
				s-2.8,0.9-4.3,0.9h-1.7c-0.5,0-1.2,0-1.9-0.2s-1.7-0.5-2.4-0.9c-0.7-0.5-1.4-1.2-1.9-2.1s-0.9-2.1-0.9-3.3c0-0.2,0-0.7,0-0.9
				c0-0.5,0-0.7,0-1.4l0.2-1.9c0-0.7,0.2-1.4,0.5-2.4c0.2-0.9,0.7-1.9,1.2-2.6c0.7-0.9,1.7-1.4,2.8-2.1c1.2-0.5,3.1-0.9,5.2-0.9h7.1
				l0.2-1.4c0-0.2,0-0.5,0-0.5c0-0.2,0-0.2,0-0.5c0-0.5-0.2-0.7-0.5-0.7c-0.2-0.2-0.5-0.2-0.7-0.2H39.4l0.5-6.9h14.4
				c1.9,0,3.3,0.5,4.3,1.4C59.5,153.2,60,154.1,60,155.6L60,155.6z M43.7,166.7c-0.2,0-0.5,0-0.7,0.2s-0.5,0.5-0.5,0.9l-0.2,2.4
				c0,0.5,0,0.7,0,1.2s0.2,0.7,0.5,1.2s0.7,0.7,1.7,0.7c0.9,0,1.9-0.2,3.1-0.5s2.1-0.7,3.1-1.2l0.2-5h-7.2V166.7L43.7,166.7z
				 M91.7,157.9c0,0.9,0,1.7,0,2.6l-0.7,9.2c-0.2,3.1-1.2,5.4-2.8,7.1c-1.7,1.9-3.8,2.6-6.9,2.6h-9.9l-0.7,8h-8.5l2.8-36.9h6.9
				l0.7,2.1c0.7-0.2,1.4-0.5,2.4-0.9c0.9-0.2,1.9-0.7,2.8-0.9s1.9-0.5,3.1-0.7c0.9-0.2,1.9-0.2,2.8-0.2c1.2,0,2.1,0.2,3.1,0.7
				s1.7,0.9,2.4,1.7c0.7,0.7,1.2,1.7,1.7,2.6C91.3,155.8,91.5,156.7,91.7,157.9L91.7,157.9z M83.2,160.3c0-0.7-0.2-1.2-0.7-1.7
				s-0.9-0.7-1.9-0.7c-0.2,0-0.7,0-1.4,0.2c-0.7,0.2-1.4,0.2-2.1,0.2c-0.7,0.2-1.4,0.2-2.1,0.5s-1.4,0.2-1.9,0.5l-0.9,12.8h9.2
				c0.7,0,1.2-0.5,1.2-1.2l0.7-9c0-0.2,0-0.5,0-0.7C83.2,160.8,83.2,160.5,83.2,160.3L83.2,160.3z M103.6,179.5h-8.8l2.4-28.9h8.8
				L103.6,179.5L103.6,179.5z M106.4,147.3h-9.2l0.5-5.2h9.2L106.4,147.3L106.4,147.3z M127.2,158.2H126c-1.4,0-2.8,0.2-4,0.5
				c-1.4,0.2-2.4,0.7-3.3,0.9l-1.7,19.9h-8.8l2.4-28.9h7.1l0.7,2.4c0.7-0.2,1.2-0.7,2.1-0.9c0.7-0.2,1.7-0.7,2.4-0.9
				c0.9-0.2,1.7-0.5,2.6-0.7s1.7-0.2,2.4-0.2L127.2,158.2L127.2,158.2z M157.5,169.5c-0.2,2.8-1.2,5.2-2.6,7.1
				c-1.7,1.9-3.8,2.8-6.9,2.8h-11.6c-2.1,0-3.6-0.5-4.7-1.7s-1.9-2.6-1.9-4.7c0-0.5,0-0.7,0-0.9s0-0.9,0-1.7l0.7-9.9
				c0-1.4,0.2-2.6,0.7-3.8s0.9-2.4,1.9-3.1c0.7-0.9,1.9-1.7,3.1-2.1s2.6-0.7,4.3-0.7h11.6c1.9,0,3.6,0.7,4.7,1.9
				c1.2,1.4,1.7,3.1,1.9,5c0,0.2,0,0.7,0,0.9c0,0.5,0,0.7,0,0.9L157.5,169.5L157.5,169.5z M150,160.1c0-0.5-0.2-0.9-0.7-1.2
				c-0.5-0.2-0.9-0.5-1.4-0.5H140c-0.7,0-1.2,0.5-1.2,1.2l-0.7,9c0,0.2,0,0.5,0,0.7s0,0.5,0,0.7c0,0.5,0.2,0.9,0.5,1.2
				c0.2,0.2,0.9,0.5,1.4,0.5h7.8c0.7,0,1.2-0.5,1.2-1.2l0.7-9.2c0-0.2,0-0.5,0-0.5C150,160.1,150,160.1,150,160.1L150,160.1z
				 M190.2,157.2c0,0.5,0,0.9,0,1.4s0,1.2,0,1.7l-1.4,18.9h-8.5l1.4-17c0-0.7,0-1.2,0-1.7c-0.2-1.7-0.9-2.6-2.4-2.6
				c-0.9,0-2.1,0.2-3.6,0.5c-1.4,0.2-2.6,0.5-3.8,0.7l-1.7,20.1h-8.5l2.4-28.9h6.9l0.7,2.1c0.9-0.5,1.7-0.7,2.6-0.9s1.9-0.7,2.8-0.9
				c0.9-0.2,1.9-0.5,2.8-0.7c0.9-0.2,1.7-0.2,2.6-0.2s1.4,0,2.4,0.2s1.7,0.5,2.4,0.9s1.4,1.2,1.9,2.1
				C189.7,154.1,190,155.6,190.2,157.2L190.2,157.2z M219.1,157.2c0,0.2,0,0.7,0,0.9s0,0.7,0,0.9l-0.2,2.4c-0.2,1.7-0.9,3.1-2.1,4
				s-2.8,1.7-4.7,2.1c-0.5,0.2-1.2,0.2-2.1,0.2c-0.9,0-1.9,0.2-2.8,0.2s-1.9,0-2.6,0.2c-0.9,0-1.4,0-1.9,0v1.2c0,0.2,0,0.5,0,0.7
				v0.5c0,0.5,0.2,0.9,0.7,1.4s0.9,0.7,1.9,0.7c0.9,0,2.1,0,3.3-0.2c1.2,0,2.4-0.2,3.8-0.5c1.2-0.2,2.4-0.2,3.6-0.5s2.1-0.5,3.1-0.7
				l-0.5,6.4c-0.9,0.5-1.9,0.7-3.1,0.9c-1.2,0.2-2.4,0.7-3.8,0.9c-1.4,0.2-2.6,0.5-4,0.7s-2.6,0.2-3.6,0.2c-0.7,0-1.7,0-2.8-0.2
				s-2.1-0.5-3.3-0.9c-0.9-0.5-1.9-1.4-2.6-2.4s-1.2-2.4-1.4-4.3c0-0.5,0-0.7,0-1.2s0-0.9,0-1.4l0.7-9.2c0-1.4,0.2-2.6,0.7-3.8
				s0.9-2.1,1.9-3.1c0.7-0.9,1.9-1.7,3.1-2.1s2.6-0.7,4.5-0.7h6.2c1.7,0,3.1,0.2,4.3,0.7s1.9,0.9,2.6,1.7c0.7,0.7,0.9,1.4,1.2,2.1
				C218.9,156,219.1,156.7,219.1,157.2L219.1,157.2z M205.6,157.5c-0.5,0-0.9,0.2-1.7,0.5c-0.5,0.2-0.9,0.9-0.9,1.9l-0.2,3.3
				c0.2,0,0.7,0,1.4,0s1.4,0,2.1-0.2c0.7,0,1.4-0.2,2.1-0.2c0.7,0,1.2-0.2,1.4-0.2c0.7-0.2,1.4-0.5,1.7-0.7c0.2-0.2,0.5-0.5,0.5-0.9
				c0-0.2,0-0.5,0.2-0.7s0-0.5,0-0.7c0-0.5-0.2-0.9-0.7-1.4s-0.9-0.5-1.4-0.5h-4.5V157.5z"/>
			<g>
				<path class="st6" d="M38.2,202.7c-0.5,0-1.2,0-1.9,0s-1.2-0.2-1.7-0.2l0.7-9.7c0.5,0,1.2-0.2,1.7-0.2c0.7,0,1.2,0,1.7,0
					s1.2,0,1.4,0.2c0.5,0.2,0.7,0.2,1.2,0.5c0.2,0.2,0.5,0.5,0.7,0.7s0.2,0.5,0.2,0.9c0,0.2,0,0.5,0,0.7s0,0.5-0.2,0.7
					s-0.2,0.5-0.5,0.7s-0.5,0.5-0.7,0.5c0.5,0.2,0.7,0.5,1.2,0.7c0.2,0.2,0.5,0.7,0.5,1.2s0,0.9,0,1.4s-0.2,0.7-0.7,1.2
					c-0.2,0.2-0.9,0.7-1.4,0.7C39.9,202.7,39.2,202.7,38.2,202.7L38.2,202.7z M37.3,198.2l-0.2,2.6c0.2,0,0.5,0,0.7,0s0.5,0,0.7,0
					s0.5,0,0.9,0c0.2,0,0.5-0.2,0.7-0.2s0.5-0.2,0.5-0.5s0.2-0.5,0-0.7c0-0.2,0-0.2-0.2-0.5c0-0.2-0.2-0.2-0.2-0.5
					c-0.2,0-0.2-0.2-0.5-0.2s-0.5,0-0.7,0L37.3,198.2L37.3,198.2L37.3,198.2z M37.5,196.5h1.4c0.5,0,0.9-0.2,1.2-0.5
					c0.2-0.2,0.2-0.5,0.2-0.9c0-0.2,0-0.2-0.2-0.5c0-0.2-0.2-0.2-0.5-0.2s-0.2-0.2-0.5-0.2c-0.2,0-0.5,0-0.5,0s-0.5,0-0.7,0
					s-0.5,0-0.5,0L37.5,196.5L37.5,196.5z M46.5,202.7h-2.1l0.7-7.6h2.1L46.5,202.7L46.5,202.7z M46,193.9c-0.2,0-0.5,0-0.9-0.2
					c-0.2-0.2-0.5-0.5-0.5-0.7s0-0.5,0-0.5c0-0.2,0.2-0.2,0.2-0.5s0.2-0.2,0.5-0.2s0.2,0,0.5,0c0.2,0,0.5,0,0.9,0.2
					c0.2,0.2,0.5,0.5,0.5,0.7s0,0.5,0,0.5c0,0.2-0.2,0.2-0.2,0.5s-0.2,0.2-0.5,0.2C46.5,193.9,46.3,193.9,46,193.9L46,193.9z
					 M48.9,193l2.1-0.2l-0.2,2.4h2.4l-0.2,1.7h-2.4l-0.2,2.6c0,0.2,0,0.5,0,0.7s0,0.5,0.2,0.5s0.2,0.2,0.5,0.2s0.5,0,0.7,0
					s0.5,0,0.7,0s0.5,0,0.7-0.2l0.5,1.7c-0.2,0-0.5,0.2-0.9,0.2c-0.2,0-0.7,0-1.2,0c-0.7,0-1.2,0-1.7-0.2s-0.7-0.5-0.9-0.7
					s-0.2-0.7-0.5-1.2c-0.2-0.5,0-0.9,0-1.4L48.9,193L48.9,193z M54.3,199.6c0-0.7,0-1.2,0-1.9c0.2-0.5,0.2-1.2,0.7-1.4
					s0.7-0.7,1.2-0.9s1.2-0.5,1.9-0.5c0.5,0,0.9,0,1.2,0.2c0.5,0,0.7,0.2,0.9,0.2l-0.5,1.7c-0.2,0-0.5-0.2-0.7-0.2s-0.5,0-0.7,0
					c-0.7,0-1.2,0.2-1.7,0.7c-0.2,0.5-0.5,1.2-0.2,1.9c0,0.5,0.2,0.9,0.5,1.2s0.7,0.5,1.2,0.5c0.2,0,0.5,0,0.7,0s0.5-0.2,0.7-0.2
					l0.5,1.7c-0.2,0-0.5,0.2-0.9,0.2c-0.2,0-0.7,0.2-1.2,0.2c-0.7,0-1.2,0-1.7-0.2s-0.7-0.5-1.2-0.7c-0.2-0.2-0.5-0.7-0.7-0.9
					C54.3,200.3,54.3,200.1,54.3,199.6L54.3,199.6z M64.5,202.7c-0.5,0-0.9,0-1.4-0.2s-0.7-0.5-0.9-0.7s-0.5-0.7-0.7-0.9
					c-0.2-0.5-0.2-0.7-0.5-1.2c0-0.5,0-1.2,0-1.7s0.2-1.2,0.5-1.7c0.2-0.5,0.7-0.9,1.2-1.2c0.5-0.2,1.2-0.5,1.7-0.5
					c0.5,0,0.9,0,1.4,0.2s0.7,0.5,0.9,0.7s0.5,0.7,0.7,0.9c0.2,0.5,0.2,0.7,0.5,1.2c0,0.5,0,1.2,0,1.7s-0.2,1.2-0.5,1.7
					c-0.2,0.5-0.7,0.9-1.2,1.2C65.7,202.7,65.2,202.7,64.5,202.7L64.5,202.7z M64.5,196.5c-0.2,0-0.5,0-0.7,0.2s-0.5,0.5-0.5,0.7
					s-0.2,0.5-0.2,0.9c0,0.2,0,0.7,0,0.9c0,0.5,0.2,0.9,0.5,1.2s0.5,0.5,0.9,0.5c0.2,0,0.5,0,0.7-0.2s0.5-0.5,0.5-0.7
					c0.2-0.2,0.2-0.5,0.2-0.9c0-0.2,0-0.7,0-0.9c0-0.5-0.2-0.9-0.5-1.2S65,196.5,64.5,196.5L64.5,196.5z M71.4,202.7h-2.1l0.7-7.6
					h2.1L71.4,202.7L71.4,202.7z M71.1,193.9c-0.2,0-0.5,0-0.9-0.2c-0.2-0.2-0.5-0.5-0.5-0.7s0-0.5,0-0.5c0-0.2,0.2-0.2,0.2-0.5
					s0.2-0.2,0.5-0.2s0.2,0,0.5,0s0.5,0,0.9,0.2c0.2,0.2,0.5,0.5,0.5,0.7s0,0.5,0,0.5s-0.2,0.2-0.2,0.5s-0.2,0.2-0.5,0.2
					C71.6,193.9,71.4,193.9,71.1,193.9L71.1,193.9z M74,195.3c0.2,0,0.2,0,0.5-0.2c0.2,0,0.5-0.2,0.7-0.2s0.5,0,0.7-0.2
					c0.2,0,0.7,0,0.9,0c1.2,0,1.9,0.2,2.6,0.9c0.5,0.7,0.7,1.7,0.7,2.6l-0.2,4h-2.1l0.2-4c0-0.2,0-0.5,0-0.7s0-0.5,0-0.7
					s-0.2-0.2-0.2-0.5c-0.2,0-0.5-0.2-0.7-0.2s-0.5,0-0.9,0l-0.5,5.9h-2.1L74,195.3L74,195.3z M99.3,196.8c-0.2,0-0.5,0-0.7-0.2
					c-0.2,0-0.5,0-0.9,0c-0.2,0-0.2,0-0.5,0s-0.2,0-0.5,0l-0.5,5.9h-2.1l0.7-7.3c0.5-0.2,0.9-0.2,1.4-0.5s1.2-0.2,1.7-0.2
					c0.2,0,0.5,0,0.7,0s0.5,0,0.7,0.2L99.3,196.8L99.3,196.8z M103.8,202.7c-0.5,0-0.9,0-1.4-0.2s-0.7-0.5-0.9-0.7
					c-0.2-0.2-0.5-0.7-0.7-0.9c-0.2-0.5-0.2-0.7-0.5-1.2c0-0.5,0-1.2,0-1.7s0.2-1.2,0.5-1.7c0.2-0.5,0.7-0.9,1.2-1.2
					c0.5-0.2,1.2-0.5,1.7-0.5s0.9,0,1.4,0.2s0.7,0.5,0.9,0.7s0.5,0.7,0.7,0.9c0.2,0.5,0.2,0.7,0.5,1.2c0,0.5,0,1.2,0,1.7
					s-0.2,1.2-0.5,1.7c-0.2,0.5-0.7,0.9-1.2,1.2C105.2,202.7,104.5,202.7,103.8,202.7L103.8,202.7z M104,196.5c-0.2,0-0.5,0-0.7,0.2
					s-0.5,0.5-0.5,0.7c-0.2,0.2-0.2,0.5-0.2,0.9c0,0.2,0,0.7,0,0.9c0,0.5,0.2,0.9,0.5,1.2c0.2,0.2,0.5,0.5,0.9,0.5
					c0.2,0,0.5,0,0.7-0.2s0.5-0.5,0.5-0.7c0.2-0.2,0.2-0.5,0.2-0.9c0-0.2,0-0.7,0-0.9c0-0.5-0.2-0.9-0.5-1.2
					C104.8,196.8,104.3,196.5,104,196.5L104,196.5z M108.8,199.6c0-0.7,0-1.2,0-1.9c0.2-0.5,0.2-1.2,0.7-1.4
					c0.2-0.5,0.7-0.7,1.2-0.9s1.2-0.5,1.9-0.5c0.5,0,0.9,0,1.2,0.2c0.5,0,0.7,0.2,0.9,0.2l-0.5,1.7c-0.2,0-0.5-0.2-0.7-0.2
					s-0.5,0-0.7,0c-0.7,0-1.2,0.2-1.7,0.7c-0.2,0.5-0.5,1.2-0.2,1.9c0,0.5,0.2,0.9,0.5,1.2c0.2,0.2,0.7,0.5,1.2,0.5
					c0.2,0,0.5,0,0.7,0s0.5-0.2,0.7-0.2l0.5,1.7c-0.2,0-0.5,0.2-0.9,0.2c-0.2,0-0.7,0.2-1.2,0.2c-0.7,0-1.2,0-1.7-0.2
					s-0.7-0.5-1.2-0.7c-0.2-0.2-0.5-0.7-0.7-0.9C108.8,200.3,108.8,200.1,108.8,199.6L108.8,199.6z M115.4,199.6c0-0.7,0-1.2,0-1.9
					c0.2-0.5,0.2-1.2,0.7-1.7c0.2-0.5,0.7-0.7,1.2-1.2c0.5-0.2,1.2-0.5,1.9-0.5c0.2,0,0.7,0,0.9,0.2c0.2,0,0.5,0.2,0.9,0.5
					c0.2,0.2,0.5,0.5,0.7,0.7s0.2,0.5,0.2,0.9c0,0.5,0,0.9-0.2,1.4s-0.5,0.7-0.9,0.9c-0.5,0.2-0.9,0.5-1.4,0.5s-1.2,0.2-1.9,0.2
					c0.2,0.5,0.2,0.7,0.5,0.9s0.7,0.2,1.2,0.2c0.2,0,0.7,0,0.9,0s0.7-0.2,0.9-0.2l0.5,1.7c-0.2,0-0.5,0.2-0.9,0.2
					c-0.5,0-0.9,0.2-1.4,0.2c-0.7,0-1.2,0-1.7-0.2s-0.7-0.5-1.2-0.7c-0.2-0.2-0.5-0.7-0.7-0.9C115.4,200.5,115.4,200.1,115.4,199.6
					L115.4,199.6z M119,196.5c-0.5,0-0.9,0.2-1.2,0.5c-0.2,0.2-0.5,0.7-0.5,1.4c0.7,0,1.2,0,1.4-0.2c0.5,0,0.7-0.2,0.7-0.2
					c0.2,0,0.2-0.2,0.2-0.5c0-0.2,0-0.2,0-0.5C119.9,196.8,119.7,196.5,119,196.5L119,196.5z M125.3,201c0.5,0,0.7,0,0.9-0.2
					s0.2-0.2,0.2-0.5v-0.2c0,0,0-0.2-0.2-0.2l-0.2-0.2c-0.2,0-0.2-0.2-0.5-0.2s-0.5-0.2-0.7-0.2c-0.2-0.2-0.5-0.2-0.7-0.5
					c-0.2-0.2-0.2-0.5-0.5-0.5c-0.2-0.2-0.2-0.5-0.2-0.7c-0.2-0.7,0-1.4,0.5-1.9s1.4-0.7,2.4-0.7c0.5,0,0.9,0,1.4,0.2
					c0.5,0,0.7,0.2,0.9,0.5l-0.5,1.7c-0.2,0-0.5-0.2-0.9-0.2c-0.2,0-0.7-0.2-0.9-0.2s-0.2,0-0.5,0c-0.2,0-0.2,0-0.2,0
					s-0.2,0-0.2,0.2v0.2c0,0.2,0.2,0.2,0.2,0.5c0.2,0,0.5,0.2,0.7,0.2c0.5,0.2,0.7,0.2,0.9,0.5s0.5,0.2,0.7,0.5
					c0.2,0.2,0.2,0.5,0.5,0.7c0,0.2,0.2,0.5,0.2,0.7s0,0.7,0,0.9s-0.2,0.5-0.5,0.7c-0.2,0.2-0.5,0.5-0.9,0.5
					c-0.5,0.2-0.9,0.2-1.4,0.2s-0.7,0-0.9,0s-0.7,0-0.9-0.2c-0.2,0-0.5-0.2-0.7-0.2s-0.2-0.2-0.5-0.2l0.5-1.7c0.2,0,0.5,0.2,0.7,0.5
					C124.4,201,124.9,201,125.3,201L125.3,201z M132.2,201c0.5,0,0.7,0,0.9-0.2s0.2-0.2,0.2-0.5v-0.2c0,0,0-0.2-0.2-0.2l-0.2-0.2
					c-0.2,0-0.2-0.2-0.5-0.2s-0.5-0.2-0.7-0.2c-0.2-0.2-0.5-0.2-0.7-0.5c-0.2-0.2-0.2-0.5-0.5-0.5c-0.2-0.2-0.2-0.5-0.2-0.7
					c-0.2-0.7,0-1.4,0.5-1.9s1.4-0.7,2.4-0.7c0.5,0,0.9,0,1.4,0.2c0.5,0,0.7,0.2,0.9,0.5l-0.5,1.7c-0.2,0-0.5-0.2-0.9-0.2
					c-0.2,0-0.7-0.2-0.9-0.2s-0.2,0-0.5,0s-0.2,0-0.2,0s-0.2,0-0.2,0.2v0.2c0,0.2,0.2,0.2,0.2,0.5c0.2,0,0.5,0.2,0.7,0.2
					c0.5,0.2,0.7,0.2,0.9,0.5s0.5,0.2,0.7,0.5c0.2,0.2,0.2,0.5,0.5,0.7c0,0.2,0.2,0.5,0.2,0.7s0,0.7,0,0.9s-0.2,0.5-0.5,0.7
					s-0.5,0.5-0.9,0.5c-0.5,0.2-0.9,0.2-1.4,0.2s-0.7,0-0.9,0s-0.7,0-0.9-0.2c-0.2,0-0.5-0.2-0.7-0.2s-0.2-0.2-0.5-0.2l0.5-1.7
					c0.2,0,0.5,0.2,0.7,0.5C131.5,201,131.7,201,132.2,201L132.2,201z M139.3,202.7h-2.1l0.7-7.6h2.1L139.3,202.7L139.3,202.7z
					 M139.1,193.9c-0.2,0-0.5,0-0.9-0.2c-0.2-0.2-0.5-0.5-0.5-0.7s0-0.5,0-0.5c0-0.2,0.2-0.2,0.2-0.5s0.2-0.2,0.5-0.2s0.2,0,0.5,0
					c0.2,0,0.5,0,0.9,0.2c0.2,0.2,0.5,0.5,0.5,0.7s0,0.5,0,0.5c0,0.2-0.2,0.2-0.2,0.5s-0.2,0.2-0.5,0.2S139.3,193.9,139.1,193.9
					L139.1,193.9z M141.9,195.3c0.2,0,0.2,0,0.5-0.2c0.2,0,0.5-0.2,0.7-0.2s0.5,0,0.7-0.2c0.2,0,0.7,0,0.9,0c1.2,0,1.9,0.2,2.6,0.9
					c0.5,0.7,0.7,1.7,0.7,2.6l-0.5,4.3h-2.1l0.5-3.8c0-0.2,0-0.5,0-0.7s0-0.5,0-0.7s-0.2-0.2-0.2-0.5c-0.2,0-0.5-0.2-0.7-0.2
					s-0.5,0-0.9,0l-0.5,5.9h-2.4L141.9,195.3L141.9,195.3z M155.9,201.7c0,0.7-0.2,1.2-0.2,1.7c-0.2,0.5-0.5,0.9-0.7,1.2
					c-0.2,0.2-0.7,0.5-1.2,0.7s-0.9,0.2-1.7,0.2c-0.7,0-1.2,0-1.7-0.2c-0.5,0-0.9-0.2-1.2-0.5l0.5-1.7c0.2,0.2,0.7,0.2,0.9,0.2
					s0.7,0.2,1.2,0.2c0.7,0,1.2-0.2,1.4-0.5c0.2-0.2,0.5-0.7,0.5-1.2v-0.2c-0.2,0-0.5,0.2-0.5,0.2s-0.5,0-0.7,0
					c-0.5,0-0.9,0-1.2-0.2s-0.7-0.2-0.9-0.5c-0.2-0.2-0.5-0.5-0.7-0.9c-0.2-0.2-0.2-0.7-0.2-1.2c0-0.7,0-1.4,0-1.9s0.5-0.9,0.9-1.4
					c0.5-0.5,0.9-0.7,1.4-0.9s1.2-0.2,1.9-0.2c0.5,0,0.9,0,1.4,0.2c0.5,0,0.9,0.2,1.4,0.5L155.9,201.7L155.9,201.7z M154.2,196.5
					c-0.2,0-0.5,0-0.7,0c-0.5,0-0.7,0-0.9,0.2s-0.5,0.2-0.7,0.5c-0.2,0.2-0.2,0.5-0.2,0.7s0,0.7,0,0.9s0,0.2,0.2,0.5
					c0,0.2,0.2,0.2,0.2,0.5c0,0,0.2,0.2,0.5,0.2s0.2,0,0.5,0s0.2,0,0.5,0s0.5-0.2,0.5-0.2L154.2,196.5L154.2,196.5z M175.5,196.8
					c-0.2,0-0.5,0-0.7-0.2c-0.2,0-0.5,0-0.9,0c-0.2,0-0.2,0-0.5,0s-0.2,0-0.5,0l-0.5,5.9h-2.1l0.7-7.3c0.5-0.2,0.9-0.2,1.4-0.5
					c0.5-0.2,1.2-0.2,1.7-0.2c0.2,0,0.5,0,0.7,0s0.5,0,0.7,0.2L175.5,196.8L175.5,196.8z M180,202.7c-0.5,0-0.9,0-1.4-0.2
					s-0.7-0.5-0.9-0.7s-0.5-0.7-0.7-0.9c-0.2-0.5-0.2-0.7-0.5-1.2c0-0.5,0-1.2,0-1.7s0.2-1.2,0.5-1.7c0.2-0.5,0.7-0.9,1.2-1.2
					c0.5-0.2,1.2-0.5,1.7-0.5s0.9,0,1.4,0.2s0.7,0.5,0.9,0.7s0.5,0.7,0.7,0.9s0.2,0.7,0.5,1.2c0,0.5,0,1.2,0,1.7s-0.2,1.2-0.5,1.7
					c-0.2,0.5-0.7,0.9-1.2,1.2C181.2,202.7,180.7,202.7,180,202.7L180,202.7z M180,196.5c-0.2,0-0.5,0-0.7,0.2s-0.5,0.5-0.5,0.7
					c-0.2,0.2-0.2,0.5-0.2,0.9c0,0.2,0,0.7,0,0.9c0,0.5,0.2,0.9,0.5,1.2c0.2,0.2,0.5,0.5,0.9,0.5c0.2,0,0.5,0,0.7-0.2
					s0.5-0.5,0.5-0.7c0.2-0.2,0.2-0.5,0.2-0.9c0-0.2,0-0.7,0-0.9c0-0.5-0.2-0.9-0.5-1.2C180.7,196.8,180.5,196.5,180,196.5
					L180,196.5z M186.7,202.7c-0.5-0.9-0.7-2.1-1.2-3.3s-0.7-2.6-1.2-4.3h2.1c0,0.5,0.2,0.7,0.2,1.2s0.2,0.9,0.2,1.4
					s0.2,0.9,0.2,1.4s0.2,0.7,0.2,1.2c0.2-0.2,0.2-0.7,0.5-1.2c0.2-0.5,0.5-0.9,0.5-1.4c0.2-0.5,0.2-0.9,0.5-1.4s0.2-0.9,0.2-1.2
					h2.4c-0.2,0.7-0.2,1.4-0.7,2.1c-0.2,0.7-0.5,1.4-0.9,2.1c-0.2,0.7-0.7,1.4-0.9,1.9s-0.7,1.2-0.9,1.4h-1.2V202.7z M194.9,202.7
					h-2.1l0.7-7.6h2.1L194.9,202.7L194.9,202.7z M194.5,193.9c-0.2,0-0.5,0-0.9-0.2c-0.2-0.2-0.5-0.5-0.5-0.7s0-0.5,0-0.5
					s0.2-0.2,0.2-0.5s0.2-0.2,0.5-0.2c0.2,0,0.2,0,0.5,0c0.2,0,0.5,0,0.9,0.2c0.2,0.2,0.5,0.5,0.5,0.7s0,0.5,0,0.5s-0.2,0.2-0.2,0.5
					s-0.2,0.2-0.5,0.2C194.9,193.9,194.7,193.9,194.5,193.9L194.5,193.9z M199.9,202.7c-0.5,0-0.9,0-1.2-0.2
					c-0.5-0.2-0.7-0.5-0.9-0.7s-0.5-0.7-0.7-0.9c-0.2-0.5-0.2-0.7-0.2-1.2c0-0.7,0-1.2,0-1.9c0.2-0.5,0.5-1.2,0.7-1.4
					c0.2-0.5,0.7-0.7,1.4-0.9c0.5-0.2,1.2-0.5,1.9-0.5c0.2,0,0.2,0,0.5,0c0.2,0,0.2,0,0.5,0l0.2-3.3l2.1-0.2l-0.7,8
					c0,0.5,0,1.2,0.2,1.7s0.2,0.9,0.5,1.4l-1.9,0.2l-0.2-0.2c0,0-0.2-0.2-0.2-0.5c-0.2,0.2-0.5,0.5-0.7,0.5
					C200.9,202.7,200.4,202.7,199.9,202.7L199.9,202.7z M201.6,196.8C201.6,196.8,201.3,196.8,201.6,196.8c-0.2,0-0.2,0-0.2,0
					s0,0-0.2,0H201c-0.2,0-0.7,0-0.9,0.2s-0.5,0.5-0.7,0.7s-0.2,0.5-0.2,0.9c0,0.2,0,0.7,0,0.9c0,0.5,0.2,0.9,0.5,1.2
					c0.2,0.2,0.5,0.5,0.9,0.5c0.2,0,0.5,0,0.5-0.2c0.2,0,0.2-0.2,0.5-0.5c0-0.2,0-0.5,0-0.7s0-0.5,0-0.7L201.6,196.8L201.6,196.8z
					 M205.4,199.6c0-0.7,0-1.2,0-1.9c0.2-0.5,0.2-1.2,0.7-1.7c0.2-0.5,0.7-0.7,1.2-1.2c0.5-0.2,1.2-0.5,1.9-0.5c0.2,0,0.7,0,0.9,0.2
					s0.5,0.2,0.9,0.5c0.2,0.2,0.5,0.5,0.7,0.7s0.2,0.5,0.2,0.9c0,0.5,0,0.9-0.2,1.4s-0.5,0.7-0.9,0.9c-0.5,0.2-0.9,0.5-1.4,0.5
					s-1.2,0.2-1.9,0.2c0.2,0.5,0.2,0.7,0.5,0.9c0.2,0.2,0.7,0.2,1.2,0.2c0.2,0,0.7,0,0.9,0s0.7-0.2,0.9-0.2l0.5,1.7
					c-0.2,0-0.5,0.2-0.9,0.2s-0.9,0.2-1.4,0.2c-0.7,0-1.2,0-1.7-0.2s-0.7-0.5-1.2-0.7c-0.2-0.2-0.5-0.7-0.7-0.9
					C205.6,200.5,205.4,200.1,205.4,199.6L205.4,199.6z M209.1,196.5c-0.5,0-0.9,0.2-1.2,0.5c-0.2,0.2-0.5,0.7-0.5,1.4
					c0.7,0,1.2,0,1.4-0.2c0.5,0,0.7-0.2,0.7-0.2s0.2-0.2,0.2-0.5c0-0.2,0-0.2,0-0.5C209.9,196.8,209.6,196.5,209.1,196.5
					L209.1,196.5z M218.1,196.8c-0.2,0-0.5,0-0.7-0.2c-0.2,0-0.5,0-0.9,0c-0.2,0-0.2,0-0.5,0c-0.2,0-0.2,0-0.5,0l-0.5,5.9h-2.1
					l0.7-7.3c0.5-0.2,0.9-0.2,1.4-0.5c0.5-0.2,1.2-0.2,1.7-0.2c0.2,0,0.5,0,0.7,0s0.5,0,0.7,0.2L218.1,196.8L218.1,196.8z
					 M88.9,192.5c0.7,0,1.2,0,1.7,0.2s0.9,0.2,1.4,0.5c0.5,0.2,0.7,0.5,0.9,0.9c0.2,0.5,0.5,0.7,0.5,1.2c0,0.7,0,1.4-0.2,1.9
					s-0.5,0.9-0.9,1.2c-0.5,0.2-0.9,0.5-1.7,0.7c-0.7,0.2-1.4,0.2-2.1,0.2H88l-0.2,3.3h-2.4l0.7-9.9c0.5,0,0.9-0.2,1.4-0.2
					C87.9,192.5,88.4,192.5,88.9,192.5L88.9,192.5z M88.9,194.4c-0.2,0-0.2,0-0.5,0h-0.2l-0.2,3.1h0.5c0.5,0,0.7,0,1.2,0
					c0.2,0,0.7-0.2,0.7-0.2c0.2-0.2,0.5-0.2,0.5-0.5c0-0.2,0-0.5,0-0.9c0-0.5-0.2-0.7-0.7-0.9C89.8,194.4,89.4,194.4,88.9,194.4z"/>
				<path class="st6" d="M164.9,192.5c0.7,0,1.2,0,1.7,0.2s0.9,0.2,1.4,0.5c0.5,0.2,0.7,0.5,0.9,0.9c0.2,0.5,0.5,0.7,0.5,1.2
					c0,0.7,0,1.4-0.2,1.9s-0.5,0.9-0.9,1.2c-0.5,0.2-0.9,0.5-1.7,0.7c-0.7,0.2-1.4,0.2-2.1,0.2H164l-0.2,3.3h-2.4l0.7-9.9
					c0.5,0,0.9-0.2,1.4-0.2S164.4,192.5,164.9,192.5L164.9,192.5z M165.1,194.4c-0.2,0-0.2,0-0.5,0h-0.2l-0.2,3.1h0.5
					c0.5,0,0.7,0,1.2,0c0.2,0,0.7-0.2,0.7-0.2c0.2-0.2,0.5-0.2,0.5-0.5s0-0.5,0-0.9c0-0.5-0.2-0.7-0.7-0.9
					C166.1,194.4,165.6,194.4,165.1,194.4z"/>
			</g>
		</g>
	</g>
</g>
<g id="Слой_2">
	<g id="g3005" transform="translate(446.5,317.18)">
		<path id="path3007" class="st7" d="M-193.7-77.4c0,7.2-8.6,12.9-19.2,12.9h-211.3c-10.6,0-19.2-5.8-19.2-12.9v-225
			c0-7.2,8.6-12.9,19.2-12.9h211.3c10.6,0,19.2,5.8,19.2,12.9V-77.4z"/>
	</g>
	<g id="g3017" transform="translate(446.5,317.18)">
		<path id="path3019" class="st8" d="M-193.2-76.2c0,7.3-8.6,13.2-19.3,13.2h-212c-10.6,0-19.3-5.9-19.3-13.2v-70.3h250.5V-76.2z"/>
	</g>
	<g>
		<text transform="matrix(1 0 0 1 41.5132 213.3965)" class="st6 st9 st10">B</text>
		<text transform="matrix(1 0 0 1 69.3623 213.3965)" class="st6 st9 st10">I</text>
		<text transform="matrix(1 0 0 1 82.6206 213.3965)" class="st6 st9 st10">T</text>
		<text transform="matrix(1 0 0 1 107.1968 213.3965)" class="st6 st9 st10">C</text>
		<text transform="matrix(1 0 0 1 136.1778 213.3965)" class="st6 st9 st10">O</text>
		<text transform="matrix(1 0 0 1 169.5674 213.3965)" class="st6 st9 st10">I</text>
		<text transform="matrix(1 0 0 1 182.8262 213.3965)" class="st6 st9 st10">N</text>
		<text transform="matrix(1 0 0 1 43.128 237.1855)" class="st6 st9 st11">A</text>
		<text transform="matrix(1 0 0 1 57.897 237.1855)" class="st6 st9 st11">C</text>
		<text transform="matrix(1 0 0 1 72.4068 237.1855)" class="st6 st9 st11">C</text>
		<text transform="matrix(1 0 0 1 86.9165 237.1855)" class="st6 st9 st11">E</text>
		<text transform="matrix(1 0 0 1 99.8789 237.1855)" class="st6 st9 st11">P</text>
		<text transform="matrix(1 0 0 1 113.2993 237.1855)" class="st6 st9 st11">T</text>
		<text transform="matrix(1 0 0 1 125.3501 237.1855)" class="st6 st9 st11">E</text>
		<text transform="matrix(1 0 0 1 138.3135 237.1855)" class="st6 st9 st11">D</text>
		<text transform="matrix(1 0 0 1 153.5567 237.1855)" class="st6 st9 st11"> </text>
		<text transform="matrix(1 0 0 1 158.7891 237.1855)" class="st6 st9 st11">H</text>
		<text transform="matrix(1 0 0 1 173.8926 237.1855)" class="st6 st9 st11">E</text>
		<text transform="matrix(1 0 0 1 186.8555 237.1855)" class="st6 st9 st11">R</text>
		<text transform="matrix(1 0 0 1 201.2657 237.1855)" class="st6 st9 st11">E</text>
	</g>
	<g id="Слой_3">
	</g>
	<g>
		<g>
			<g id="g3021_1_" transform="translate(402.0085,547.2003)">
				<path id="path3023_1_" class="st12" d="M-169.4-447.6c-7.7,30.9-39,49.7-69.9,42c-30.9-7.7-49.7-39-42-69.9
					c7.7-30.9,39-49.7,69.9-42C-180.5-509.8-161.7-478.5-169.4-447.6"/>
			</g>
			<g>
				<polygon class="st6" points="190.8,102.1 201.2,89.1 180.4,89.1 177.6,85.6 180.3,82.2 201.9,82.2 190.8,69.4 194.6,64.6 
					211.6,85.6 194.6,107 				"/>
				<polygon class="st6" points="141.7,82.5 172.3,82.5 190.6,59.2 160.1,59.2 				"/>
				<polygon class="st6" points="141.7,88.9 172.3,88.9 190.6,112.1 160.1,112.1 				"/>
			</g>
		</g>
		<g>
			<g id="g3021" transform="translate(402.0085,547.2003)">
				<path id="path3023" class="st8" d="M-266.8-447.6c-7.7,30.9-39,49.7-69.9,42c-30.9-7.7-49.7-39-42-69.9
					c7.7-30.9,39-49.7,69.9-42C-277.9-509.8-259.1-478.5-266.8-447.6"/>
			</g>
			<g id="g3025" transform="translate(327.5863,585.7355)">
				<path id="path3027" class="st6" d="M-235.4-508.4c-1.8,7.1-12.8,3.5-16.4,2.6l3.1-12.6C-245-517.5-233.5-515.8-235.4-508.4
					 M-237.3-488c-2,7.9-15.2,3.6-19.5,2.5l3.5-13.9C-249-498.3-235.3-496.2-237.3-488 M-222.9-508.3c1.1-7.7-4.7-11.8-12.7-14.5
					l2.6-10.4l-6.3-1.6l-2.5,10.1c-1.7-0.4-3.4-0.8-5.1-1.2l2.5-10.2l-6.3-1.6l-2.6,10.4c-1.4-0.3-2.7-0.6-4-0.9l0,0l-8.7-2.2
					l-1.7,6.8c0,0,4.7,1.1,4.6,1.1c2.6,0.6,3,2.3,2.9,3.7l-3,11.8c0.2,0,0.4,0.1,0.7,0.2c-0.2-0.1-0.4-0.1-0.7-0.2l-4.1,16.6
					c-0.3,0.8-1.1,1.9-2.9,1.5c0.1,0.1-4.6-1.1-4.6-1.1l-3.1,7.2l8.2,2.1c1.5,0.4,3,0.8,4.5,1.2l-2.6,10.5l6.3,1.6l2.6-10.4
					c1.7,0.5,3.4,0.9,5,1.3l-2.6,10.3l6.3,1.6l2.6-10.5c10.8,2,18.9,1.2,22.3-8.5c2.8-7.9-0.1-12.4-5.8-15.3
					C-226.8-499.9-223.7-502.7-222.9-508.3"/>
			</g>
		</g>
	</g>
</g>
</svg>
